<?xml version="1.0" encoding="UTF-8" ?>
<svg xmlns="http://www.w3.org/2000/svg" version="1.1">
<polyline points="0,0 105,0 105,70 0,70 0,0" fill="rgba(168,112,140,0.5)" stroke="rgb(0,0,0)" stroke-width = "2"/>
<text x="5" y="5" dx="0" dy="6" font-size="12" font-family="Verdana" font-weight="bold" fill="white">21x14</text>
<polyline points="105,0 210,0 210,70 105,70 105,0" fill="rgba(168,112,140,0.5)" stroke="rgb(0,0,0)" stroke-width = "2"/>
<text x="110" y="5" dx="0" dy="6" font-size="12" font-family="Verdana" font-weight="bold" fill="white">21x14</text>
<polyline points="210,0 280,0 280,140 210,140 210,0" fill="rgba(224,112,168,0.5)" stroke="rgb(0,0,0)" stroke-width = "2"/>
<text x="215" y="5" dx="0" dy="6" font-size="12" font-family="Verdana" font-weight="bold" fill="white">14x28</text>
<polyline points="0,70 160,70 160,120 0,120 0,70" fill="rgba(0,80,168,0.5)" stroke="rgb(0,0,0)" stroke-width = "2"/>
<text x="5" y="75" dx="0" dy="6" font-size="12" font-family="Verdana" font-weight="bold" fill="white">32x10</text>
<polyline points="160,70 190,70 190,210 160,210 160,70" fill="rgba(224,48,136,0.5)" stroke="rgb(0,0,0)" stroke-width = "2"/>
<text x="165" y="75" dx="0" dy="6" font-size="12" font-family="Verdana" font-weight="bold" fill="white">6x28</text>
<polyline points="190,70 210,70 210,140 190,140 190,70" fill="rgba(112,32,72,0.5)" stroke="rgb(0,0,0)" stroke-width = "2"/>
<text x="195" y="75" dx="0" dy="6" font-size="12" font-family="Verdana" font-weight="bold" fill="white">4x14</text>
<polyline points="0,120 55,120 55,280 0,280 0,120" fill="rgba(0,88,172,0.5)" stroke="rgb(0,0,0)" stroke-width = "2"/>
<text x="5" y="125" dx="0" dy="6" font-size="12" font-family="Verdana" font-weight="bold" fill="white">11x32</text>
<polyline points="55,120 160,120 160,210 55,210 55,120" fill="rgba(168,144,156,0.5)" stroke="rgb(0,0,0)" stroke-width = "2"/>
<text x="60" y="125" dx="0" dy="6" font-size="12" font-family="Verdana" font-weight="bold" fill="white">21x18</text>
<polyline points="190,140 280,140 280,245 190,245 190,140" fill="rgba(168,144,156,0.5)" stroke="rgb(0,0,0)" stroke-width = "2"/>
<text x="195" y="145" dx="0" dy="6" font-size="12" font-family="Verdana" font-weight="bold" fill="white">18x21</text>
<polyline points="55,210 140,210 140,280 55,280 55,210" fill="rgba(136,112,124,0.5)" stroke="rgb(0,0,0)" stroke-width = "2"/>
<text x="60" y="215" dx="0" dy="6" font-size="12" font-family="Verdana" font-weight="bold" fill="white">17x14</text>
<polyline points="140,210 190,210 190,245 140,245 140,210" fill="rgba(80,56,68,0.5)" stroke="rgb(0,0,0)" stroke-width = "2"/>
<text x="145" y="215" dx="0" dy="6" font-size="12" font-family="Verdana" font-weight="bold" fill="white">10x7</text>
<polyline points="140,245 280,245 280,280 140,280 140,245" fill="rgba(224,56,140,0.5)" stroke="rgb(0,0,0)" stroke-width = "2"/>
<text x="145" y="250" dx="0" dy="6" font-size="12" font-family="Verdana" font-weight="bold" fill="white">28x7</text>
</svg>