<?xml version="1.0" encoding="UTF-8" ?>
<svg xmlns="http://www.w3.org/2000/svg" version="1.1">
<polyline points="0,0 70,0 70,140 0,140 0,0" fill="rgba(224,112,168,0.5)" stroke="rgb(0,0,0)" stroke-width = "2"/>
<text x="5" y="5" dx="0" dy="6" font-size="12" font-family="Verdana" font-weight="bold" fill="white">14x28</text>
<polyline points="70,0 175,0 175,70 70,70 70,0" fill="rgba(168,112,140,0.5)" stroke="rgb(0,0,0)" stroke-width = "2"/>
<text x="75" y="5" dx="0" dy="6" font-size="12" font-family="Verdana" font-weight="bold" fill="white">21x14</text>
<polyline points="175,0 280,0 280,70 175,70 175,0" fill="rgba(168,112,140,0.5)" stroke="rgb(0,0,0)" stroke-width = "2"/>
<text x="180" y="5" dx="0" dy="6" font-size="12" font-family="Verdana" font-weight="bold" fill="white">21x14</text>
<polyline points="70,70 90,70 90,140 70,140 70,70" fill="rgba(112,32,72,0.5)" stroke="rgb(0,0,0)" stroke-width = "2"/>
<text x="75" y="75" dx="0" dy="6" font-size="12" font-family="Verdana" font-weight="bold" fill="white">4x14</text>
<polyline points="90,70 120,70 120,210 90,210 90,70" fill="rgba(224,48,136,0.5)" stroke="rgb(0,0,0)" stroke-width = "2"/>
<text x="95" y="75" dx="0" dy="6" font-size="12" font-family="Verdana" font-weight="bold" fill="white">6x28</text>
<polyline points="120,70 280,70 280,120 120,120 120,70" fill="rgba(0,80,168,0.5)" stroke="rgb(0,0,0)" stroke-width = "2"/>
<text x="125" y="75" dx="0" dy="6" font-size="12" font-family="Verdana" font-weight="bold" fill="white">32x10</text>
<polyline points="120,120 225,120 225,210 120,210 120,120" fill="rgba(168,144,156,0.5)" stroke="rgb(0,0,0)" stroke-width = "2"/>
<text x="125" y="125" dx="0" dy="6" font-size="12" font-family="Verdana" font-weight="bold" fill="white">21x18</text>
<polyline points="225,120 280,120 280,280 225,280 225,120" fill="rgba(0,88,172,0.5)" stroke="rgb(0,0,0)" stroke-width = "2"/>
<text x="230" y="125" dx="0" dy="6" font-size="12" font-family="Verdana" font-weight="bold" fill="white">11x32</text>
<polyline points="0,140 90,140 90,245 0,245 0,140" fill="rgba(168,144,156,0.5)" stroke="rgb(0,0,0)" stroke-width = "2"/>
<text x="5" y="145" dx="0" dy="6" font-size="12" font-family="Verdana" font-weight="bold" fill="white">18x21</text>
<polyline points="90,210 140,210 140,245 90,245 90,210" fill="rgba(80,56,68,0.5)" stroke="rgb(0,0,0)" stroke-width = "2"/>
<text x="95" y="215" dx="0" dy="6" font-size="12" font-family="Verdana" font-weight="bold" fill="white">10x7</text>
<polyline points="140,210 225,210 225,280 140,280 140,210" fill="rgba(136,112,124,0.5)" stroke="rgb(0,0,0)" stroke-width = "2"/>
<text x="145" y="215" dx="0" dy="6" font-size="12" font-family="Verdana" font-weight="bold" fill="white">17x14</text>
<polyline points="0,245 140,245 140,280 0,280 0,245" fill="rgba(224,56,140,0.5)" stroke="rgb(0,0,0)" stroke-width = "2"/>
<text x="5" y="250" dx="0" dy="6" font-size="12" font-family="Verdana" font-weight="bold" fill="white">28x7</text>
</svg>