<?xml version="1.0" encoding="UTF-8" ?>
<svg xmlns="http://www.w3.org/2000/svg" version="1.1">
<polyline points="0,0 140,0 140,35 0,35 0,0" fill="rgba(224,56,140,0.5)" stroke="rgb(0,0,0)" stroke-width = "2"/>
<text x="5" y="5" dx="0" dy="6" font-size="12" font-family="Verdana" font-weight="bold" fill="white">28x7</text>
<polyline points="140,0 225,0 225,70 140,70 140,0" fill="rgba(136,112,124,0.5)" stroke="rgb(0,0,0)" stroke-width = "2"/>
<text x="145" y="5" dx="0" dy="6" font-size="12" font-family="Verdana" font-weight="bold" fill="white">17x14</text>
<polyline points="225,0 280,0 280,160 225,160 225,0" fill="rgba(0,88,172,0.5)" stroke="rgb(0,0,0)" stroke-width = "2"/>
<text x="230" y="5" dx="0" dy="6" font-size="12" font-family="Verdana" font-weight="bold" fill="white">11x32</text>
<polyline points="0,35 90,35 90,140 0,140 0,35" fill="rgba(168,144,156,0.5)" stroke="rgb(0,0,0)" stroke-width = "2"/>
<text x="5" y="40" dx="0" dy="6" font-size="12" font-family="Verdana" font-weight="bold" fill="white">18x21</text>
<polyline points="90,35 140,35 140,70 90,70 90,35" fill="rgba(80,56,68,0.5)" stroke="rgb(0,0,0)" stroke-width = "2"/>
<text x="95" y="40" dx="0" dy="6" font-size="12" font-family="Verdana" font-weight="bold" fill="white">10x7</text>
<polyline points="90,70 120,70 120,210 90,210 90,70" fill="rgba(224,48,136,0.5)" stroke="rgb(0,0,0)" stroke-width = "2"/>
<text x="95" y="75" dx="0" dy="6" font-size="12" font-family="Verdana" font-weight="bold" fill="white">6x28</text>
<polyline points="120,70 225,70 225,160 120,160 120,70" fill="rgba(168,144,156,0.5)" stroke="rgb(0,0,0)" stroke-width = "2"/>
<text x="125" y="75" dx="0" dy="6" font-size="12" font-family="Verdana" font-weight="bold" fill="white">21x18</text>
<polyline points="0,140 70,140 70,280 0,280 0,140" fill="rgba(224,112,168,0.5)" stroke="rgb(0,0,0)" stroke-width = "2"/>
<text x="5" y="145" dx="0" dy="6" font-size="12" font-family="Verdana" font-weight="bold" fill="white">14x28</text>
<polyline points="70,140 90,140 90,210 70,210 70,140" fill="rgba(112,32,72,0.5)" stroke="rgb(0,0,0)" stroke-width = "2"/>
<text x="75" y="145" dx="0" dy="6" font-size="12" font-family="Verdana" font-weight="bold" fill="white">4x14</text>
<polyline points="120,160 280,160 280,210 120,210 120,160" fill="rgba(0,80,168,0.5)" stroke="rgb(0,0,0)" stroke-width = "2"/>
<text x="125" y="165" dx="0" dy="6" font-size="12" font-family="Verdana" font-weight="bold" fill="white">32x10</text>
<polyline points="70,210 175,210 175,280 70,280 70,210" fill="rgba(168,112,140,0.5)" stroke="rgb(0,0,0)" stroke-width = "2"/>
<text x="75" y="215" dx="0" dy="6" font-size="12" font-family="Verdana" font-weight="bold" fill="white">21x14</text>
<polyline points="175,210 280,210 280,280 175,280 175,210" fill="rgba(168,112,140,0.5)" stroke="rgb(0,0,0)" stroke-width = "2"/>
<text x="180" y="215" dx="0" dy="6" font-size="12" font-family="Verdana" font-weight="bold" fill="white">21x14</text>
</svg>