<?xml version="1.0" encoding="UTF-8" ?>
<svg xmlns="http://www.w3.org/2000/svg" version="1.1">
<polyline points="0,0 160,0 160,55 0,55 0,0" fill="rgba(0,88,172,0.5)" stroke="rgb(0,0,0)" stroke-width = "2"/>
<text x="5" y="5" dx="0" dy="6" font-size="12" font-family="Verdana" font-weight="bold" fill="white">32x11</text>
<polyline points="160,0 210,0 210,160 160,160 160,0" fill="rgba(0,80,168,0.5)" stroke="rgb(0,0,0)" stroke-width = "2"/>
<text x="165" y="5" dx="0" dy="6" font-size="12" font-family="Verdana" font-weight="bold" fill="white">10x32</text>
<polyline points="210,0 280,0 280,105 210,105 210,0" fill="rgba(168,112,140,0.5)" stroke="rgb(0,0,0)" stroke-width = "2"/>
<text x="215" y="5" dx="0" dy="6" font-size="12" font-family="Verdana" font-weight="bold" fill="white">14x21</text>
<polyline points="0,55 70,55 70,140 0,140 0,55" fill="rgba(136,112,124,0.5)" stroke="rgb(0,0,0)" stroke-width = "2"/>
<text x="5" y="60" dx="0" dy="6" font-size="12" font-family="Verdana" font-weight="bold" fill="white">14x17</text>
<polyline points="70,55 160,55 160,160 70,160 70,55" fill="rgba(168,144,156,0.5)" stroke="rgb(0,0,0)" stroke-width = "2"/>
<text x="75" y="60" dx="0" dy="6" font-size="12" font-family="Verdana" font-weight="bold" fill="white">18x21</text>
<polyline points="210,105 280,105 280,210 210,210 210,105" fill="rgba(168,112,140,0.5)" stroke="rgb(0,0,0)" stroke-width = "2"/>
<text x="215" y="110" dx="0" dy="6" font-size="12" font-family="Verdana" font-weight="bold" fill="white">14x21</text>
<polyline points="0,140 35,140 35,280 0,280 0,140" fill="rgba(224,56,140,0.5)" stroke="rgb(0,0,0)" stroke-width = "2"/>
<text x="5" y="145" dx="0" dy="6" font-size="12" font-family="Verdana" font-weight="bold" fill="white">7x28</text>
<polyline points="35,140 70,140 70,190 35,190 35,140" fill="rgba(80,56,68,0.5)" stroke="rgb(0,0,0)" stroke-width = "2"/>
<text x="40" y="145" dx="0" dy="6" font-size="12" font-family="Verdana" font-weight="bold" fill="white">7x10</text>
<polyline points="70,160 210,160 210,190 70,190 70,160" fill="rgba(224,48,136,0.5)" stroke="rgb(0,0,0)" stroke-width = "2"/>
<text x="75" y="165" dx="0" dy="6" font-size="12" font-family="Verdana" font-weight="bold" fill="white">28x6</text>
<polyline points="35,190 140,190 140,280 35,280 35,190" fill="rgba(168,144,156,0.5)" stroke="rgb(0,0,0)" stroke-width = "2"/>
<text x="40" y="195" dx="0" dy="6" font-size="12" font-family="Verdana" font-weight="bold" fill="white">21x18</text>
<polyline points="140,190 210,190 210,210 140,210 140,190" fill="rgba(112,32,72,0.5)" stroke="rgb(0,0,0)" stroke-width = "2"/>
<text x="145" y="195" dx="0" dy="6" font-size="12" font-family="Verdana" font-weight="bold" fill="white">14x4</text>
<polyline points="140,210 280,210 280,280 140,280 140,210" fill="rgba(224,112,168,0.5)" stroke="rgb(0,0,0)" stroke-width = "2"/>
<text x="145" y="215" dx="0" dy="6" font-size="12" font-family="Verdana" font-weight="bold" fill="white">28x14</text>
</svg>